<svg width="28" height="28" viewBox="0 0 28 28" fill="none" xmlns="http://www.w3.org/2000/svg">
<path d="M4.8998 5.59961C4.34285 5.59961 3.80871 5.82086 3.41488 6.21468C3.02105 6.60851 2.7998 7.14265 2.7998 7.69961V10.4996C2.7998 11.0566 3.02105 11.5907 3.41488 11.9845C3.80871 12.3784 4.34285 12.5996 4.8998 12.5996H7.6998C8.25676 12.5996 8.7909 12.3784 9.18473 11.9845C9.57856 11.5907 9.7998 11.0566 9.7998 10.4996V7.69961C9.7998 7.14265 9.57856 6.60851 9.18473 6.21468C8.7909 5.82086 8.25676 5.59961 7.6998 5.59961H4.8998ZM4.1998 7.69961C4.1998 7.51396 4.27355 7.33591 4.40483 7.20463C4.53611 7.07336 4.71415 6.99961 4.8998 6.99961H7.6998C7.88546 6.99961 8.0635 7.07336 8.19478 7.20463C8.32605 7.33591 8.3998 7.51396 8.3998 7.69961V10.4996C8.3998 10.6853 8.32605 10.8633 8.19478 10.9946C8.0635 11.1259 7.88546 11.1996 7.6998 11.1996H4.8998C4.71415 11.1996 4.53611 11.1259 4.40483 10.9946C4.27355 10.8633 4.1998 10.6853 4.1998 10.4996V7.69961ZM13.2998 6.99961C13.1142 6.99961 12.9361 7.07336 12.8048 7.20463C12.6736 7.33591 12.5998 7.51396 12.5998 7.69961C12.5998 7.88526 12.6736 8.06331 12.8048 8.19458C12.9361 8.32586 13.1142 8.39961 13.2998 8.39961H24.4998C24.6855 8.39961 24.8635 8.32586 24.9948 8.19458C25.1261 8.06331 25.1998 7.88526 25.1998 7.69961C25.1998 7.51396 25.1261 7.33591 24.9948 7.20463C24.8635 7.07336 24.6855 6.99961 24.4998 6.99961H13.2998ZM13.2998 9.79961C13.1142 9.79961 12.9361 9.87336 12.8048 10.0046C12.6736 10.1359 12.5998 10.314 12.5998 10.4996C12.5998 10.6853 12.6736 10.8633 12.8048 10.9946C12.9361 11.1259 13.1142 11.1996 13.2998 11.1996H21.6998C21.8855 11.1996 22.0635 11.1259 22.1948 10.9946C22.3261 10.8633 22.3998 10.6853 22.3998 10.4996C22.3998 10.314 22.3261 10.1359 22.1948 10.0046C22.0635 9.87336 21.8855 9.79961 21.6998 9.79961H13.2998ZM4.8998 15.3996C4.34285 15.3996 3.80871 15.6209 3.41488 16.0147C3.02105 16.4085 2.7998 16.9427 2.7998 17.4996V20.2996C2.7998 20.8566 3.02105 21.3907 3.41488 21.7845C3.80871 22.1784 4.34285 22.3996 4.8998 22.3996H7.6998C8.25676 22.3996 8.7909 22.1784 9.18473 21.7845C9.57856 21.3907 9.7998 20.8566 9.7998 20.2996V17.4996C9.7998 16.9427 9.57856 16.4085 9.18473 16.0147C8.7909 15.6209 8.25676 15.3996 7.6998 15.3996H4.8998ZM4.1998 17.4996C4.1998 17.314 4.27355 17.1359 4.40483 17.0046C4.53611 16.8734 4.71415 16.7996 4.8998 16.7996H7.6998C7.88546 16.7996 8.0635 16.8734 8.19478 17.0046C8.32605 17.1359 8.3998 17.314 8.3998 17.4996V20.2996C8.3998 20.4853 8.32605 20.6633 8.19478 20.7946C8.0635 20.9259 7.88546 20.9996 7.6998 20.9996H4.8998C4.71415 20.9996 4.53611 20.9259 4.40483 20.7946C4.27355 20.6633 4.1998 20.4853 4.1998 20.2996V17.4996ZM13.2998 16.7996C13.1142 16.7996 12.9361 16.8734 12.8048 17.0046C12.6736 17.1359 12.5998 17.314 12.5998 17.4996C12.5998 17.6853 12.6736 17.8633 12.8048 17.9946C12.9361 18.1259 13.1142 18.1996 13.2998 18.1996H24.4998C24.6855 18.1996 24.8635 18.1259 24.9948 17.9946C25.1261 17.8633 25.1998 17.6853 25.1998 17.4996C25.1998 17.314 25.1261 17.1359 24.9948 17.0046C24.8635 16.8734 24.6855 16.7996 24.4998 16.7996H13.2998ZM13.2998 19.5996C13.1142 19.5996 12.9361 19.6734 12.8048 19.8046C12.6736 19.9359 12.5998 20.114 12.5998 20.2996C12.5998 20.4853 12.6736 20.6633 12.8048 20.7946C12.9361 20.9259 13.1142 20.9996 13.2998 20.9996H21.6998C21.8855 20.9996 22.0635 20.9259 22.1948 20.7946C22.3261 20.6633 22.3998 20.4853 22.3998 20.2996C22.3998 20.114 22.3261 19.9359 22.1948 19.8046C22.0635 19.6734 21.8855 19.5996 21.6998 19.5996H13.2998Z" fill="#4D4535"/>
</svg>
