<svg width="80" height="80" viewBox="0 0 80 80" fill="none" xmlns="http://www.w3.org/2000/svg">
<path d="M39.7299 31.1604L30.3978 44.7901C29.951 45.4432 30.3718 46.3813 31.1126 46.3813H35.0935C35.5888 46.3813 35.9904 46.8255 35.9904 47.3737V61.4076C35.9904 61.9557 36.3913 62.3999 36.8867 62.3999H44.0025C44.4972 62.3999 44.8988 61.9557 44.8988 61.4076V47.3737C44.8988 46.8255 45.3004 46.3813 45.7957 46.3813H49.7766C50.5174 46.3813 50.9382 45.4432 50.4909 44.7901L41.1594 31.1604C40.8007 30.636 40.0884 30.636 39.7299 31.1604Z" fill="#DAD8D8"/>
<path d="M73.2869 21.2744L64.3885 11.4283L63.4496 10.3894L54.5511 0.543281C54.2366 0.195312 53.8096 0 53.3651 0H8.78857C7.86236 0 7.11111 0.830781 7.11111 1.85547V78.1439C7.11111 79.1687 7.86236 80 8.78857 80H72.1009C73.027 80 73.7778 79.1687 73.7778 78.1439V22.5866C73.7779 22.0947 73.6013 21.6223 73.2869 21.2744ZM50.0643 28.0952H62.7109C63.6375 28.0952 64.3883 28.9258 64.3883 29.9505V67.7545C64.3883 68.7792 63.6375 69.61 62.7109 69.61H18.1786C17.2519 69.61 16.5011 68.7792 16.5011 67.7545V12.2455C16.5011 11.2202 17.2519 10.3894 18.1786 10.3894H46.7098C47.636 10.3894 48.3867 11.2202 48.3867 12.2455V26.2389C48.3868 27.2638 49.1381 28.0952 50.0643 28.0952Z" fill="#DAD8D8"/>
</svg>
