<svg width="29" height="28" viewBox="0 0 29 28" fill="none" xmlns="http://www.w3.org/2000/svg">
<path fill-rule="evenodd" clip-rule="evenodd" d="M8.8998 8.40078V11.2008H11.6998V8.40078H8.8998ZM7.4998 6.30078C7.31415 6.30078 7.13611 6.37453 7.00483 6.50581C6.87355 6.63708 6.7998 6.81513 6.7998 7.00078V12.6008C6.7998 12.7864 6.87355 12.9645 7.00483 13.0958C7.13611 13.227 7.31415 13.3008 7.4998 13.3008H13.0998C13.2855 13.3008 13.4635 13.227 13.5948 13.0958C13.7261 12.9645 13.7998 12.7864 13.7998 12.6008V7.00078C13.7998 6.81513 13.7261 6.63708 13.5948 6.50581C13.4635 6.37453 13.2855 6.30078 13.0998 6.30078H7.4998ZM17.2998 8.40078V11.2008H20.0998V8.40078H17.2998ZM15.8998 6.30078C15.7142 6.30078 15.5361 6.37453 15.4048 6.50581C15.2736 6.63708 15.1998 6.81513 15.1998 7.00078V12.6008C15.1998 12.7864 15.2736 12.9645 15.4048 13.0958C15.5361 13.227 15.7142 13.3008 15.8998 13.3008H21.4998C21.6855 13.3008 21.8635 13.227 21.9948 13.0958C22.1261 12.9645 22.1998 12.7864 22.1998 12.6008V7.00078C22.1998 6.81513 22.1261 6.63708 21.9948 6.50581C21.8635 6.37453 21.6855 6.30078 21.4998 6.30078H15.8998ZM8.8998 16.8008V19.6008H11.6998V16.8008H8.8998ZM7.4998 14.7008C7.31415 14.7008 7.13611 14.7745 7.00483 14.9058C6.87355 15.0371 6.7998 15.2151 6.7998 15.4008V21.0008C6.7998 21.1864 6.87355 21.3645 7.00483 21.4958C7.13611 21.627 7.31415 21.7008 7.4998 21.7008H13.0998C13.2855 21.7008 13.4635 21.627 13.5948 21.4958C13.7261 21.3645 13.7998 21.1864 13.7998 21.0008V15.4008C13.7998 15.2151 13.7261 15.0371 13.5948 14.9058C13.4635 14.7745 13.2855 14.7008 13.0998 14.7008H7.4998Z" fill="#4D4535"/>
<path d="M15.2002 15.4012C15.2002 15.2155 15.2739 15.0375 15.4052 14.9062C15.5365 14.7749 15.7145 14.7012 15.9002 14.7012H21.5002C21.6858 14.7012 21.8639 14.7749 21.9952 14.9062C22.1264 15.0375 22.2002 15.2155 22.2002 15.4012V21.0012C22.2002 21.1868 22.1264 21.3649 21.9952 21.4961C21.8639 21.6274 21.6858 21.7012 21.5002 21.7012H15.9002C15.7145 21.7012 15.5365 21.6274 15.4052 21.4961C15.2739 21.3649 15.2002 21.1868 15.2002 21.0012V15.4012Z" fill="#4D4535"/>
<path fill-rule="evenodd" clip-rule="evenodd" d="M3.2998 4.20078C3.2998 3.82948 3.4473 3.47338 3.70986 3.21083C3.97241 2.94828 4.3285 2.80078 4.6998 2.80078H9.5998C9.97111 2.80078 10.3272 2.94828 10.5898 3.21083C10.8523 3.47338 10.9998 3.82948 10.9998 4.20078C10.9998 4.57208 10.8523 4.92818 10.5898 5.19073C10.3272 5.45328 9.97111 5.60078 9.5998 5.60078H4.6998C4.3285 5.60078 3.97241 5.45328 3.70986 5.19073C3.4473 4.92818 3.2998 4.57208 3.2998 4.20078Z" fill="#4D4535"/>
<path fill-rule="evenodd" clip-rule="evenodd" d="M4.6998 2.80078C5.07111 2.80078 5.4272 2.94828 5.68975 3.21083C5.95231 3.47338 6.0998 3.82948 6.0998 4.20078V9.10078C6.0998 9.47208 5.95231 9.82818 5.68975 10.0907C5.4272 10.3533 5.07111 10.5008 4.6998 10.5008C4.3285 10.5008 3.97241 10.3533 3.70986 10.0907C3.4473 9.82818 3.2998 9.47208 3.2998 9.10078V4.20078C3.2998 3.82948 3.4473 3.47338 3.70986 3.21083C3.97241 2.94828 4.3285 2.80078 4.6998 2.80078ZM4.6998 25.2008C4.3285 25.2008 3.97241 25.0533 3.70986 24.7907C3.4473 24.5282 3.2998 24.1721 3.2998 23.8008V18.9008C3.2998 18.5295 3.4473 18.1734 3.70986 17.9108C3.97241 17.6483 4.3285 17.5008 4.6998 17.5008C5.07111 17.5008 5.4272 17.6483 5.68975 17.9108C5.95231 18.1734 6.0998 18.5295 6.0998 18.9008V23.8008C6.0998 24.1721 5.95231 24.5282 5.68975 24.7907C5.4272 25.0533 5.07111 25.2008 4.6998 25.2008Z" fill="#4D4535"/>
<path fill-rule="evenodd" clip-rule="evenodd" d="M3.2998 23.8004C3.2998 23.4291 3.4473 23.073 3.70986 22.8104C3.97241 22.5479 4.3285 22.4004 4.6998 22.4004H9.5998C9.97111 22.4004 10.3272 22.5479 10.5898 22.8104C10.8523 23.073 10.9998 23.4291 10.9998 23.8004C10.9998 24.1717 10.8523 24.5278 10.5898 24.7903C10.3272 25.0529 9.97111 25.2004 9.5998 25.2004H4.6998C4.3285 25.2004 3.97241 25.0529 3.70986 24.7903C3.4473 24.5278 3.2998 24.1717 3.2998 23.8004ZM25.6998 23.8004C25.6998 24.1717 25.5523 24.5278 25.2898 24.7903C25.0272 25.0529 24.6711 25.2004 24.2998 25.2004H19.3998C19.0285 25.2004 18.6724 25.0529 18.4099 24.7903C18.1473 24.5278 17.9998 24.1717 17.9998 23.8004C17.9998 23.4291 18.1473 23.073 18.4099 22.8104C18.6724 22.5479 19.0285 22.4004 19.3998 22.4004H24.2998C24.6711 22.4004 25.0272 22.5479 25.2898 22.8104C25.5523 23.073 25.6998 23.4291 25.6998 23.8004Z" fill="#4D4535"/>
<path fill-rule="evenodd" clip-rule="evenodd" d="M24.2994 25.2008C23.9281 25.2008 23.572 25.0533 23.3095 24.7907C23.0469 24.5282 22.8994 24.1721 22.8994 23.8008V18.9008C22.8994 18.5295 23.0469 18.1734 23.3095 17.9108C23.572 17.6483 23.9281 17.5008 24.2994 17.5008C24.6707 17.5008 25.0268 17.6483 25.2894 17.9108C25.5519 18.1734 25.6994 18.5295 25.6994 18.9008V23.8008C25.6994 24.1721 25.5519 24.5282 25.2894 24.7907C25.0268 25.0533 24.6707 25.2008 24.2994 25.2008ZM24.2994 2.80078C24.6707 2.80078 25.0268 2.94828 25.2894 3.21083C25.5519 3.47338 25.6994 3.82948 25.6994 4.20078V9.10078C25.6994 9.47208 25.5519 9.82818 25.2894 10.0907C25.0268 10.3533 24.6707 10.5008 24.2994 10.5008C23.9281 10.5008 23.572 10.3533 23.3095 10.0907C23.0469 9.82818 22.8994 9.47208 22.8994 9.10078V4.20078C22.8994 3.82948 23.0469 3.47338 23.3095 3.21083C23.572 2.94828 23.9281 2.80078 24.2994 2.80078Z" fill="#4D4535"/>
<path fill-rule="evenodd" clip-rule="evenodd" d="M25.7 4.20078C25.7 4.57208 25.5525 4.92818 25.29 5.19073C25.0274 5.45328 24.6713 5.60078 24.3 5.60078H19.4C19.0287 5.60078 18.6726 5.45328 18.4101 5.19073C18.1475 4.92818 18 4.57208 18 4.20078C18 3.82948 18.1475 3.47338 18.4101 3.21083C18.6726 2.94828 19.0287 2.80078 19.4 2.80078H24.3C24.6713 2.80078 25.0274 2.94828 25.29 3.21083C25.5525 3.47338 25.7 3.82948 25.7 4.20078Z" fill="#4D4535"/>
</svg>
