<svg width="49" height="49" viewBox="0 0 49 49" fill="none" xmlns="http://www.w3.org/2000/svg">
<path d="M45.1667 27.9099H28.0833V44.9932C28.0833 45.8994 27.7234 46.7684 27.0826 47.4092C26.4419 48.0499 25.5728 48.4099 24.6667 48.4099C23.7605 48.4099 22.8915 48.0499 22.2507 47.4092C21.61 46.7684 21.25 45.8994 21.25 44.9932V27.9099H4.16667C3.26051 27.9099 2.39147 27.5499 1.75072 26.9092C1.10997 26.2684 0.75 25.3994 0.75 24.4932C0.75 23.587 1.10997 22.718 1.75072 22.0773C2.39147 21.4365 3.26051 21.0765 4.16667 21.0765H21.25V3.9932C21.25 3.08705 21.61 2.218 22.2507 1.57726C22.8915 0.936506 23.7605 0.576538 24.6667 0.576538C25.5728 0.576538 26.4419 0.936506 27.0826 1.57726C27.7234 2.218 28.0833 3.08705 28.0833 3.9932V21.0765H45.1667C46.0728 21.0765 46.9419 21.4365 47.5826 22.0773C48.2234 22.718 48.5833 23.587 48.5833 24.4932C48.5833 25.3994 48.2234 26.2684 47.5826 26.9092C46.9419 27.5499 46.0728 27.9099 45.1667 27.9099Z" fill="#4D4535"/>
</svg>
