<svg width="28" height="28" viewBox="0 0 28 28" fill="none" xmlns="http://www.w3.org/2000/svg">
<path d="M17.5 14C17.5 14.9283 17.1313 15.8185 16.4749 16.4749C15.8185 17.1313 14.9283 17.5 14 17.5C13.0717 17.5 12.1815 17.1313 11.5251 16.4749C10.8687 15.8185 10.5 14.9283 10.5 14C10.5 13.0717 10.8687 12.1815 11.5251 11.5251C12.1815 10.8687 13.0717 10.5 14 10.5C14.9283 10.5 15.8185 10.8687 16.4749 11.5251C17.1313 12.1815 17.5 13.0717 17.5 14Z" stroke="#4D4535" stroke-linecap="round" stroke-linejoin="round"/>
<path d="M2.33301 14.0007C4.19967 9.22082 8.55834 5.83398 13.9997 5.83398C19.441 5.83398 23.7997 9.22082 25.6663 14.0007C23.7997 18.7805 19.441 22.1673 13.9997 22.1673C8.55834 22.1673 4.19967 18.7805 2.33301 14.0007Z" stroke="#4D4535" stroke-linecap="round" stroke-linejoin="round"/>
</svg>
