<svg xmlns="http://www.w3.org/2000/svg" width="20" height="21" fill="none"><g stroke="#4D4535" stroke-linecap="round" stroke-linejoin="round" stroke-opacity=".6" clip-path="url(#a)"><path d="M15 8.358V6.215a5 5 0 0 0-10 0v2.143m10.715 0H4.286a1.43 1.43 0 0 0-1.429 1.428v8.572a1.43 1.43 0 0 0 1.429 1.428h11.429a1.43 1.43 0 0 0 1.428-1.428V9.786a1.43 1.43 0 0 0-1.428-1.428"/><path d="M10 14.786a.715.715 0 1 0 0-1.43.715.715 0 0 0 0 1.43"/></g><defs><clipPath id="a"><path fill="#fff" d="M0 .5h20v20H0z"/></clipPath></defs></svg>