<svg width="126" height="139" viewBox="0 0 126 139" fill="none" xmlns="http://www.w3.org/2000/svg">
<path d="M118.889 0.055542H7.7777C3.94899 0.055542 0.833252 3.17128 0.833252 6.99999V132C0.833252 135.829 3.94899 138.944 7.7777 138.944H118.889C122.718 138.944 125.833 135.829 125.833 132V6.99999C125.833 3.17128 122.718 0.055542 118.889 0.055542ZM93.4258 16.2592V69.5V127.37C93.4258 131.199 90.3101 134.315 86.4814 134.315H7.7777C6.50223 134.315 5.46288 133.278 5.46288 132V6.99999C5.46288 5.72221 6.50223 4.68517 7.7777 4.68517H86.4814C90.3101 4.68517 93.4258 7.80091 93.4258 11.6296V16.2592ZM121.204 132C121.204 133.278 120.164 134.315 118.889 134.315H95.6805C97.1504 132.375 98.0555 129.986 98.0555 127.37V113.481H105C106.278 113.481 107.315 112.447 107.315 111.167C107.315 109.887 106.278 108.852 105 108.852H98.0555V104.222H109.63C110.907 104.222 111.944 103.188 111.944 101.907C111.944 100.627 110.907 99.5926 109.63 99.5926H98.0555V94.963H105C106.278 94.963 107.315 93.9282 107.315 92.6481C107.315 91.368 106.278 90.3333 105 90.3333H98.0555V85.7037H109.63C110.907 85.7037 111.944 84.669 111.944 83.3889C111.944 82.1088 110.907 81.0741 109.63 81.0741H98.0555V71.8148H107.315C111.143 71.8148 114.259 68.6991 114.259 64.8704V20.8889C114.259 17.0602 111.143 13.9444 107.315 13.9444H98.0555V11.6296C98.0555 9.01388 97.1504 6.62499 95.6805 4.68517H118.889C120.164 4.68517 121.204 5.72221 121.204 6.99999V132ZM98.0555 67.1852V18.5741H107.315C108.59 18.5741 109.63 19.6111 109.63 20.8889V64.8704C109.63 66.1481 108.59 67.1852 107.315 67.1852H98.0555Z" fill="#4D4535"/>
<path d="M83.3865 23.6691C82.8912 23.2339 82.2384 23.0163 81.5717 23.1066L81.2731 23.146C81.0833 23.1691 80.8888 23.2038 80.6944 23.2038C77.5046 23.2038 74.9074 20.6089 74.9074 17.4168C74.9074 17.2154 74.9421 17.014 74.9675 16.8219L75.0046 16.5464C75.0879 15.889 74.8819 15.227 74.4421 14.727C74.0046 14.2293 73.3703 13.9446 72.7083 13.9446H26.1805C25.5162 13.9446 24.8842 14.2293 24.4444 14.727C24.0046 15.227 23.8009 15.889 23.8819 16.5464L23.9189 16.8219C23.9467 17.014 23.9814 17.2154 23.9814 17.4168C23.9814 20.6089 21.3842 23.2038 18.1944 23.2038C17.9999 23.2038 17.8055 23.1691 17.6157 23.146L17.3171 23.1066C16.655 23.0117 15.9976 23.2339 15.5023 23.6691C15.0069 24.1112 14.7222 24.7409 14.7222 25.4029V113.597C14.7222 114.259 15.0069 114.891 15.5023 115.331C15.9976 115.766 16.6597 115.993 17.3171 115.894L17.6157 115.854C17.8055 115.831 17.9999 115.796 18.1944 115.796C21.3842 115.796 23.9814 118.391 23.9814 121.583C23.9814 121.785 23.9467 121.986 23.9212 122.178L23.8842 122.454C23.8009 123.111 24.0069 123.773 24.4467 124.273C24.8842 124.771 25.5185 125.056 26.1805 125.056H72.7083C73.3726 125.056 74.0046 124.771 74.4444 124.273C74.8842 123.773 75.0879 123.111 75.0069 122.454L74.9699 122.178C74.9421 121.986 74.9074 121.785 74.9074 121.583C74.9074 118.391 77.5046 115.796 80.6944 115.796C80.8888 115.796 81.0833 115.831 81.2731 115.854L81.5717 115.894C82.2361 115.991 82.8912 115.766 83.3865 115.331C83.8819 114.889 84.1666 114.259 84.1666 113.597V25.4029C84.1666 24.7409 83.8819 24.1089 83.3865 23.6691ZM79.537 111.229C74.7152 111.764 70.8773 115.604 70.3425 120.426H28.5462C28.0115 115.604 24.1712 111.766 19.3518 111.229V27.771C24.1736 27.2362 28.0115 23.396 28.5462 18.5742H70.3425C70.8773 23.396 74.7175 27.2339 79.537 27.771V111.229Z" fill="#4D4535"/>
<path d="M67.9628 83.389H28.611C27.3332 83.389 26.2961 84.4238 26.2961 85.7039C26.2961 86.9839 27.3332 88.0187 28.611 88.0187H67.9628C69.2406 88.0187 70.2776 86.9839 70.2776 85.7039C70.2776 84.4238 69.2406 83.389 67.9628 83.389Z" fill="#4D4535"/>
<path d="M28.611 97.2777H40.185C41.4628 97.2777 42.4998 96.243 42.4998 94.9629C42.4998 93.6828 41.4628 92.6481 40.185 92.6481H28.611C27.3332 92.6481 26.2961 93.6828 26.2961 94.9629C26.2961 96.243 27.3332 97.2777 28.611 97.2777Z" fill="#4D4535"/>
<path d="M67.963 92.6481H49.4445C48.1667 92.6481 47.1296 93.6828 47.1296 94.9629C47.1296 96.243 48.1667 97.2777 49.4445 97.2777H67.963C69.2407 97.2777 70.2778 96.243 70.2778 94.9629C70.2778 93.6828 69.2407 92.6481 67.963 92.6481Z" fill="#4D4535"/>
<path d="M67.9629 101.907H56.3888C55.111 101.907 54.074 102.942 54.074 104.222C54.074 105.502 55.111 106.537 56.3888 106.537H67.9629C69.2406 106.537 70.2777 105.502 70.2777 104.222C70.2777 102.942 69.2406 101.907 67.9629 101.907Z" fill="#4D4535"/>
<path d="M47.1295 101.907H28.611C27.3332 101.907 26.2961 102.942 26.2961 104.222C26.2961 105.502 27.3332 106.537 28.611 106.537H47.1295C48.4073 106.537 49.4443 105.502 49.4443 104.222C49.4443 102.942 48.4073 101.907 47.1295 101.907Z" fill="#4D4535"/>
<path d="M30.9259 46.3518C32.2037 46.3518 33.2407 45.3171 33.2407 44.037V39.4073C33.2407 38.1273 32.2037 37.0925 30.9259 37.0925C29.6481 37.0925 28.6111 38.1273 28.6111 39.4073V44.037C28.6111 45.3171 29.6481 46.3518 30.9259 46.3518Z" fill="#4D4535"/>
<path d="M49.4443 62.5555C57.104 62.5555 63.3332 56.3263 63.3332 48.6666C63.3332 41.0069 57.104 34.7777 49.4443 34.7777C41.7846 34.7777 35.5554 41.0069 35.5554 48.6666C35.5554 56.3263 41.7846 62.5555 49.4443 62.5555ZM49.4443 39.4073C54.5508 39.4073 58.7036 43.5601 58.7036 48.6666C58.7036 53.7731 54.5508 57.9259 49.4443 57.9259C44.3378 57.9259 40.185 53.7731 40.185 48.6666C40.185 43.5601 44.3378 39.4073 49.4443 39.4073Z" fill="#4D4535"/>
<path d="M67.9629 48.6667C66.6852 48.6667 65.6481 49.7015 65.6481 50.9816C65.6481 59.9144 58.3796 67.1853 49.4444 67.1853C40.5092 67.1853 33.2407 59.9144 33.2407 50.9816C33.2407 49.7015 32.2037 48.6667 30.9259 48.6667C29.6481 48.6667 28.6111 49.7015 28.6111 50.9816C28.6111 62.47 37.9583 71.8149 49.4444 71.8149C60.9305 71.8149 70.2778 62.47 70.2778 50.9816C70.2778 49.7015 69.2407 48.6667 67.9629 48.6667Z" fill="#4D4535"/>
<path d="M67.9628 37.0925C66.685 37.0925 65.6479 38.1273 65.6479 39.4073V44.037C65.6479 45.3171 66.685 46.3518 67.9628 46.3518C69.2405 46.3518 70.2776 45.3171 70.2776 44.037V39.4073C70.2776 38.1273 69.2405 37.0925 67.9628 37.0925Z" fill="#4D4535"/>
</svg>
