<svg width="126" height="119" viewBox="0 0 126 119" fill="none" xmlns="http://www.w3.org/2000/svg">
<path d="M8.37809 41.3752V41.2933C8.37797 33.2008 10.7747 25.2896 15.2658 18.5577C19.7569 11.8258 26.1413 6.57494 33.6133 3.4675C41.0854 0.360053 49.3105 -0.464719 57.2508 1.09724C65.1911 2.65919 72.4909 6.5379 78.2293 12.244C82.7442 10.0156 87.7873 9.07862 92.8014 9.53668C97.8154 9.99475 102.605 11.83 106.642 14.8396C110.678 17.8493 113.804 21.9162 115.674 26.591C117.544 31.2658 118.085 36.3666 117.238 41.3297C118.483 41.4453 119.692 41.8164 120.788 42.4199C121.884 43.0234 122.843 43.8462 123.607 44.8371C124.371 45.828 124.922 46.9657 125.226 48.1791C125.531 49.3926 125.582 50.6557 125.376 51.8898C121.262 76.6422 111.084 92.3093 94.8614 98.9003V105.018C94.8614 108.639 93.4227 112.113 90.8618 114.674C88.301 117.234 84.8277 118.673 81.2061 118.673H44.7921C41.1705 118.673 37.6972 117.234 35.1364 114.674C32.5755 112.113 31.1368 108.639 31.1368 105.018V98.9003C14.9144 92.3093 4.73669 76.6422 0.621902 51.8898C0.423316 50.6885 0.467721 49.4596 0.752488 48.2758C1.03726 47.092 1.5566 45.9774 2.27978 44.9979C3.00297 44.0183 3.9153 43.1938 4.96278 42.5731C6.01026 41.9525 7.1716 41.5482 8.37809 41.3843V41.3752ZM17.4816 41.2933H26.5851C26.5851 35.2573 28.9829 29.4685 33.251 25.2004C37.5191 20.9323 43.3079 18.5345 49.3439 18.5345C55.3799 18.5345 61.1686 20.9323 65.4367 25.2004C69.7048 29.4685 72.1026 35.2573 72.1026 41.2933H81.2061C81.2061 32.8429 77.8492 24.7386 71.8739 18.7633C65.8985 12.7879 57.7943 9.43101 49.3439 9.43101C40.8935 9.43101 32.7892 12.7879 26.8138 18.7633C20.8385 24.7386 17.4816 32.8429 17.4816 41.2933ZM35.6886 41.2933H62.9991C62.9991 37.6717 61.5604 34.1984 58.9996 31.6376C56.4387 29.0767 52.9655 27.638 49.3439 27.638C45.7223 27.638 42.249 29.0767 39.6881 31.6376C37.1273 34.1984 35.6886 37.6717 35.6886 41.2933ZM98.1933 41.2933H107.943C108.63 38.6029 108.694 35.7912 108.13 33.0724C107.566 30.3535 106.389 27.7993 104.689 25.6043C102.988 23.4093 100.809 21.6315 98.3168 20.4063C95.825 19.1812 93.0864 18.541 90.3096 18.5345C88.1248 18.5345 86.0492 18.9169 84.1192 19.6178C85.7306 22.2032 87.0597 24.9889 88.0793 27.9111C89.8132 27.4811 91.6352 27.5696 93.3192 28.1658C95.0032 28.762 96.4751 29.8395 97.5523 31.2647C98.6294 32.6898 99.2643 34.3999 99.3783 36.1827C99.4922 37.9655 99.0802 39.7426 98.1933 41.2933ZM85.7579 100.466H40.2404V105.018C40.2404 106.225 40.7199 107.383 41.5735 108.236C42.4271 109.09 43.5849 109.57 44.7921 109.57H81.2061C82.4133 109.57 83.5711 109.09 84.4247 108.236C85.2783 107.383 85.7579 106.225 85.7579 105.018V100.466ZM37.0359 91.3626H88.9623C103.4 86.7198 112.54 73.5925 116.4 50.3968H9.59796C13.4578 73.5925 22.5978 86.7198 37.0359 91.3626Z" fill="#4D4535"/>
</svg>
