<svg xmlns="http://www.w3.org/2000/svg" width="21" height="19" fill="none"><path fill="#4D4535" d="m1.419 17.52.72.71L19.115 1.48l-.72-.71-3.385 3.35a11.8 11.8 0 0 0-4.51-.89c-4.622 0-8.615 2.65-10.5 6.5.983 2 2.524 3.67 4.419 4.82zM10.5 4.23c1.307 0 2.564.23 3.72.66l-1.136 1.13c-.74-.5-1.621-.79-2.584-.79-2.534 0-4.56 2-4.56 4.5 0 .95.293 1.82.8 2.55l-1.571 1.54a10.7 10.7 0 0 1-4.034-4.09 10.65 10.65 0 0 1 9.365-5.5m9.365 5.5a10.65 10.65 0 0 1-9.365 5.5c-1.166 0-2.3-.19-3.355-.53l-.79.78c1.287.49 2.686.75 4.145.75 4.622 0 8.615-2.65 10.5-6.5a11.5 11.5 0 0 0-4.125-4.63l-.73.73c1.55.96 2.838 2.3 3.72 3.9m-9.365 4.5c2.534 0 4.56-2 4.56-4.5 0-.82-.222-1.58-.607-2.24l-.75.74c.223.46.344.96.344 1.5 0 .929-.373 1.819-1.039 2.475a3.57 3.57 0 0 1-4.028.685l-.75.74c.669.38 1.439.6 2.27.6m-3.547-4.5c0-.928.373-1.818 1.039-2.474A3.57 3.57 0 0 1 10.5 6.23c.68 0 1.307.19 1.845.5l-4.886 4.82a3.56 3.56 0 0 1-.506-1.82"/></svg>